<mxfile host="app.diagrams.net" modified="2021-03-18T11:48:43.619Z" agent="5.0 (Windows NT 10.0; Win64; x64) AppleWebKit/537.36 (KHTML, like Gecko) Chrome/89.0.4389.90 Safari/537.36" etag="q_cMN_YA0OschBM5xQf6" version="14.4.9" type="github">
  <diagram id="D7lpQbnnQRT_svnoM3Iq" name="Page-1">
    <mxGraphModel dx="942" dy="557" grid="1" gridSize="10" guides="1" tooltips="1" connect="1" arrows="1" fold="1" page="1" pageScale="1" pageWidth="827" pageHeight="1169" math="0" shadow="0">
      <root>
        <mxCell id="0" />
        <mxCell id="1" parent="0" />
        <mxCell id="xrfxX8IXfCl50z1MQCYA-10" style="edgeStyle=orthogonalEdgeStyle;rounded=0;orthogonalLoop=1;jettySize=auto;html=1;entryX=0.5;entryY=0;entryDx=0;entryDy=0;" edge="1" parent="1" source="xrfxX8IXfCl50z1MQCYA-1" target="xrfxX8IXfCl50z1MQCYA-2">
          <mxGeometry relative="1" as="geometry" />
        </mxCell>
        <mxCell id="xrfxX8IXfCl50z1MQCYA-1" value="Начало" style="rounded=0;whiteSpace=wrap;html=1;" vertex="1" parent="1">
          <mxGeometry x="315" y="20" width="120" height="60" as="geometry" />
        </mxCell>
        <mxCell id="xrfxX8IXfCl50z1MQCYA-11" style="edgeStyle=orthogonalEdgeStyle;rounded=0;orthogonalLoop=1;jettySize=auto;html=1;" edge="1" parent="1" source="xrfxX8IXfCl50z1MQCYA-2" target="xrfxX8IXfCl50z1MQCYA-4">
          <mxGeometry relative="1" as="geometry" />
        </mxCell>
        <mxCell id="xrfxX8IXfCl50z1MQCYA-12" style="edgeStyle=orthogonalEdgeStyle;rounded=0;orthogonalLoop=1;jettySize=auto;html=1;entryX=0.5;entryY=0;entryDx=0;entryDy=0;" edge="1" parent="1" source="xrfxX8IXfCl50z1MQCYA-2" target="xrfxX8IXfCl50z1MQCYA-6">
          <mxGeometry relative="1" as="geometry" />
        </mxCell>
        <mxCell id="xrfxX8IXfCl50z1MQCYA-2" value="Фикс основной таблицы на данные которой полагается основная часть тз&lt;br&gt;&lt;br&gt;Не можете починить, есть внешние ключи - отвязываете, потому что ваша главная задача - это данные для последующей работы с ними" style="rounded=0;whiteSpace=wrap;html=1;" vertex="1" parent="1">
          <mxGeometry x="250" y="120" width="250" height="120" as="geometry" />
        </mxCell>
        <mxCell id="xrfxX8IXfCl50z1MQCYA-14" style="edgeStyle=orthogonalEdgeStyle;rounded=0;orthogonalLoop=1;jettySize=auto;html=1;entryX=0.25;entryY=0;entryDx=0;entryDy=0;" edge="1" parent="1" source="xrfxX8IXfCl50z1MQCYA-4" target="xrfxX8IXfCl50z1MQCYA-6">
          <mxGeometry relative="1" as="geometry" />
        </mxCell>
        <mxCell id="xrfxX8IXfCl50z1MQCYA-4" value="Починка остальных таблиц только если вы понимаете, что потраченное время стоит ~3 баллов" style="rounded=0;whiteSpace=wrap;html=1;" vertex="1" parent="1">
          <mxGeometry x="30" y="250" width="150" height="110" as="geometry" />
        </mxCell>
        <mxCell id="xrfxX8IXfCl50z1MQCYA-16" style="edgeStyle=orthogonalEdgeStyle;rounded=0;orthogonalLoop=1;jettySize=auto;html=1;entryX=0.5;entryY=0;entryDx=0;entryDy=0;" edge="1" parent="1" source="xrfxX8IXfCl50z1MQCYA-6" target="xrfxX8IXfCl50z1MQCYA-15">
          <mxGeometry relative="1" as="geometry" />
        </mxCell>
        <mxCell id="xrfxX8IXfCl50z1MQCYA-6" value="Менеджер для основной таблицы, остальные менеджеры нужно делать только по мере их надобности&lt;br&gt;&lt;br&gt;за просто так написанные менеджеры для других сущностей баллов вам не дадут" style="rounded=0;whiteSpace=wrap;html=1;" vertex="1" parent="1">
          <mxGeometry x="250" y="370" width="250" height="100" as="geometry" />
        </mxCell>
        <mxCell id="xrfxX8IXfCl50z1MQCYA-19" style="edgeStyle=orthogonalEdgeStyle;rounded=0;orthogonalLoop=1;jettySize=auto;html=1;" edge="1" parent="1" source="xrfxX8IXfCl50z1MQCYA-15" target="xrfxX8IXfCl50z1MQCYA-18">
          <mxGeometry relative="1" as="geometry" />
        </mxCell>
        <mxCell id="xrfxX8IXfCl50z1MQCYA-29" style="edgeStyle=orthogonalEdgeStyle;rounded=0;orthogonalLoop=1;jettySize=auto;html=1;exitX=0.25;exitY=1;exitDx=0;exitDy=0;entryX=0.5;entryY=0;entryDx=0;entryDy=0;" edge="1" parent="1" source="xrfxX8IXfCl50z1MQCYA-15" target="xrfxX8IXfCl50z1MQCYA-28">
          <mxGeometry relative="1" as="geometry" />
        </mxCell>
        <mxCell id="xrfxX8IXfCl50z1MQCYA-30" style="edgeStyle=orthogonalEdgeStyle;rounded=0;orthogonalLoop=1;jettySize=auto;html=1;exitX=0.75;exitY=1;exitDx=0;exitDy=0;entryX=0.57;entryY=-0.025;entryDx=0;entryDy=0;entryPerimeter=0;" edge="1" parent="1" source="xrfxX8IXfCl50z1MQCYA-15" target="xrfxX8IXfCl50z1MQCYA-17">
          <mxGeometry relative="1" as="geometry" />
        </mxCell>
        <mxCell id="xrfxX8IXfCl50z1MQCYA-15" value="Форма с табличкой, которая выводит данные по основной таблице, крайне рекомендуется использовать CustomTableModel" style="rounded=0;whiteSpace=wrap;html=1;" vertex="1" parent="1">
          <mxGeometry x="242.5" y="520" width="265" height="110" as="geometry" />
        </mxCell>
        <mxCell id="xrfxX8IXfCl50z1MQCYA-31" style="edgeStyle=orthogonalEdgeStyle;rounded=0;orthogonalLoop=1;jettySize=auto;html=1;entryX=1;entryY=0.5;entryDx=0;entryDy=0;" edge="1" parent="1" source="xrfxX8IXfCl50z1MQCYA-17" target="xrfxX8IXfCl50z1MQCYA-21">
          <mxGeometry relative="1" as="geometry" />
        </mxCell>
        <mxCell id="xrfxX8IXfCl50z1MQCYA-17" value="формы редактирования добавления и удаления" style="rounded=0;whiteSpace=wrap;html=1;" vertex="1" parent="1">
          <mxGeometry x="550" y="720" width="165" height="80" as="geometry" />
        </mxCell>
        <mxCell id="xrfxX8IXfCl50z1MQCYA-22" style="edgeStyle=orthogonalEdgeStyle;rounded=0;orthogonalLoop=1;jettySize=auto;html=1;entryX=0.5;entryY=0;entryDx=0;entryDy=0;" edge="1" parent="1" source="xrfxX8IXfCl50z1MQCYA-18" target="xrfxX8IXfCl50z1MQCYA-21">
          <mxGeometry relative="1" as="geometry" />
        </mxCell>
        <mxCell id="xrfxX8IXfCl50z1MQCYA-18" value="Шрифт, иконка, тайтлы, цветовая схема" style="rounded=0;whiteSpace=wrap;html=1;" vertex="1" parent="1">
          <mxGeometry x="280" y="720" width="190" height="80" as="geometry" />
        </mxCell>
        <mxCell id="xrfxX8IXfCl50z1MQCYA-34" style="edgeStyle=orthogonalEdgeStyle;rounded=0;orthogonalLoop=1;jettySize=auto;html=1;entryX=0.5;entryY=0;entryDx=0;entryDy=0;" edge="1" parent="1" source="xrfxX8IXfCl50z1MQCYA-21" target="xrfxX8IXfCl50z1MQCYA-33">
          <mxGeometry relative="1" as="geometry" />
        </mxCell>
        <mxCell id="xrfxX8IXfCl50z1MQCYA-21" value="коментарии (документация) основных моментов кода, readme файл, гит..." style="rounded=0;whiteSpace=wrap;html=1;" vertex="1" parent="1">
          <mxGeometry x="280" y="870" width="190" height="80" as="geometry" />
        </mxCell>
        <mxCell id="xrfxX8IXfCl50z1MQCYA-32" style="edgeStyle=orthogonalEdgeStyle;rounded=0;orthogonalLoop=1;jettySize=auto;html=1;entryX=0;entryY=0.5;entryDx=0;entryDy=0;" edge="1" parent="1" source="xrfxX8IXfCl50z1MQCYA-28" target="xrfxX8IXfCl50z1MQCYA-21">
          <mxGeometry relative="1" as="geometry" />
        </mxCell>
        <mxCell id="xrfxX8IXfCl50z1MQCYA-28" value="Сортировки, фильтрации, отображение колва записей и все что есть подобного в тз" style="rounded=0;whiteSpace=wrap;html=1;" vertex="1" parent="1">
          <mxGeometry x="20" y="720" width="190" height="80" as="geometry" />
        </mxCell>
        <mxCell id="xrfxX8IXfCl50z1MQCYA-33" value="если после всех блоков выше у вас осталось время, то чините оставшиеся таблицы в базе, если это еще не сделано, а также идете по следующим частям тз, которые уже работают с данными не из основной таблицы" style="rounded=0;whiteSpace=wrap;html=1;" vertex="1" parent="1">
          <mxGeometry x="232.5" y="1000" width="285" height="130" as="geometry" />
        </mxCell>
      </root>
    </mxGraphModel>
  </diagram>
</mxfile>
